<svg width="24" height="24" viewBox="0 0 24 24" fill="none" xmlns="http://www.w3.org/2000/svg">
<path d="M19.5561 15.7997V9.58429C19.5561 8.7224 18.8834 8.02368 18.0538 8.02368C17.2242 8.02368 16.5516 8.7224 16.5516 9.58429V17.1782C16.5545 17.3405 16.4929 17.4973 16.3803 17.6143C16.2677 17.7312 16.1133 17.7988 15.951 17.8021H14.1773C13.1403 17.8021 12.299 16.9285 12.299 15.852V9.58429C12.299 8.7224 11.6263 8.02368 10.7968 8.02368C9.96717 8.02368 9.29448 8.7224 9.29448 9.58429V17.1782C9.29738 17.3405 9.23579 17.4973 9.12321 17.6143C9.01063 17.7312 8.85625 17.7988 8.69393 17.8021H6.91664C6.8959 17.8021 6.87516 17.8021 6.85352 17.8021L11.5217 22.4695C14.3676 25.3148 19.2279 24.0021 20.2522 20.1101L20.8952 17.6695C20.502 17.541 20.1601 17.2903 19.9192 16.954C19.6784 16.6177 19.5512 16.2133 19.5561 15.7997Z" fill="#FF9700"/>
<path d="M17.4524 0.17722L3.89049 3.74832C-0.00134909 4.77341 -1.31516 9.63195 1.53068 12.4773L5.04741 15.9934C5.04741 15.9474 5.04019 15.9033 5.04019 15.8546V8.43918C5.03839 5.6308 7.46764 4.27845 10.2215 4.27845C12.1548 4.27845 13.8419 4.86807 14.7301 5.74259C15.5651 4.86807 17.1458 4.27845 18.9574 4.27845C21.2676 4.27845 23.1955 5.32066 23.6924 7.03814L23.8222 6.54679C24.8412 2.68448 21.3154 -0.839747 17.4524 0.17722Z" fill="#FF9700"/>
</svg>
